<?xml version="1.0" encoding="utf-8"?>
<!-- Generator: Adobe Illustrator 19.1.0, SVG Export Plug-In . SVG Version: 6.00 Build 0)  -->
<svg version="1.1" id="Layer_1" xmlns="http://www.w3.org/2000/svg" xmlns:xlink="http://www.w3.org/1999/xlink" x="0px" y="0px"
	 viewBox="368 -296 1024 1024" style="enable-background:new 368 -296 1024 1024;" xml:space="preserve">
<style type="text/css">
	.st0{fill:#FFFFFF;stroke:#FFFFFF;stroke-miterlimit:10;}
	.st1{fill:#FFFFFF;stroke:#231F20;}
	.st2{fill:none;}
	.st3{fill:#231F20;stroke:#231F20;}
</style>
<rect x="368" y="-296" class="st0" width="1024" height="1024"/>
<polygon class="st1" points="472.8,-50.6 472.8,46.7 588.4,2.7 588.4,441.4 472.8,398.2 472.8,497.5 670,595.9 670,-18.1 
	778.7,-59.5 778.7,650.2 903.1,712.3 903.1,-266.5 "/>
<g>
	<polygon class="st2" points="1054,170.8 1176.4,178.7 1176.4,-44.6 1054,-90.9 	"/>
	<path d="M1268.1-84.4l-365-182.1v978.9l365.1-181.2V253.1l-28.4-28.9l28.4-16.6L1268.1-84.4L1268.1-84.4z M1176.4,488L1054,533.5
		V273.2l122.4-7.2V488z M1176.4,178.7l-122.4-7.8V-90.9l122.4,46.3V178.7z"/>
</g>
<polygon class="st1" points="1092.4,174.8 1177.4,178.8 1177.4,-44.5 1092.4,-25.5 "/>
<polygon class="st1" points="1053.4,-89.9 1175.7,-43.6 1093.3,-25.9 1053.4,-37 "/>
<polygon class="st1" points="1093.9,268.8 1176.3,264 1176.3,486 1093.9,464.4 "/>
<polygon class="st1" points="1052.5,477.6 1092.5,465.4 1174.9,487 1052.5,532.5 "/>
<polygon class="st3" points="670,595.9 760,566 760,-10.2 670,-18.1 "/>
<polygon class="st3" points="778.7,-59.5 670,-18.1 760.4,4.6 778.7,-0.2 "/>
<polygon class="st3" points="472.8,46.7 559.1,57.5 588.4,49.8 588.4,2.7 "/>
<polygon class="st3" points="472.8,398.2 557.1,391 588.4,399.3 588.4,441.4 "/>
</svg>
